<?xml version="1.0" encoding="utf-8"?><svg xml:space="preserve" viewBox="0 0 100 100" y="0" x="0" xmlns="http://www.w3.org/2000/svg" id="Layer_1" version="1.1" width="200px" height="200px" xmlns:xlink="http://www.w3.org/1999/xlink" style="width:100%;height:100%;background-size:initial;background-repeat-y:initial;background-repeat-x:initial;background-position-y:initial;background-position-x:initial;background-origin:initial;background-image:initial;background-color:rgb(255, 255, 255);background-clip:initial;background-attachment:initial;animation-play-state:paused" ><g class="ldl-scale" style="transform-origin:50% 50%;transform:rotate(0deg) scale(0.8, 0.8);animation-play-state:paused" ><g style="animation-play-state:paused" ><path d="M17.3 87.7c1.3 0 2.6-.5 3.5-1.5l17.7-17.7c2-2 2-5.1 0-7.1s-5.1-2-7.1 0L13.8 79.2c-2 2-2 5.1 0 7.1 1 .9 2.2 1.4 3.5 1.4z" style="animation-play-state:paused" ></path></g>
<g style="animation-play-state:paused" ><circle r="27.5" fill="#e0e0e0" cy="43.8" cx="56.2" transform="rotate(-45.001 56.202 43.798)" style="fill:rgb(255, 255, 255);animation-play-state:paused" ></circle>
<path fill="#666766" d="M33.9 66.1c-12.3-12.3-12.3-32.3 0-44.5 12.3-12.3 32.3-12.3 44.5 0 12.3 12.3 12.3 32.3 0 44.5-6.1 6.1-14.2 9.2-22.3 9.2s-16-3.1-22.2-9.2zm5.7-38.9c-4.4 4.4-6.9 10.3-6.9 16.6s2.4 12.2 6.9 16.6c9.2 9.2 24.1 9.2 33.2 0 9.2-9.2 9.2-24.1 0-33.2-4.6-4.6-10.6-6.9-16.6-6.9-6 0-12 2.3-16.6 6.9z" style="animation-play-state:paused" ></path></g>
<metadata xmlns:d="https://loading.io/stock/" style="animation-play-state:paused" ><d:name style="animation-play-state:paused" >magnify</d:name>
<d:tags style="animation-play-state:paused" >search,lookup,find,help,guide,documentation,magnify,web application</d:tags>
<d:license style="animation-play-state:paused" >by</d:license>
<d:slug style="animation-play-state:paused" >jwntcv</d:slug></metadata></g><!-- generated by https://loading.io/ --></svg>